<?xml version="1.0" encoding="UTF-8"?>
<!DOCTYPE svg PUBLIC "-//W3C//DTD SVG 1.1//EN" "http://www.w3.org/Graphics/SVG/1.1/DTD/svg11.dtd">
<!-- Creator: CorelDRAW 2020 (64 Bit) -->
<svg xmlns="http://www.w3.org/2000/svg" xml:space="preserve" width="43.0441mm" height="50.4807mm" version="1.1" shape-rendering="geometricPrecision" text-rendering="geometricPrecision" image-rendering="optimizeQuality" fill-rule="evenodd" clip-rule="evenodd"
viewBox="0 0 645.23 756.71"
 xmlns:xlink="http://www.w3.org/1999/xlink"
 xmlns:xodm="http://www.corel.com/coreldraw/odm/2003">
 <g id="Camada_x0020_1">
  <metadata id="CorelCorpID_0Corel-Layer"/>
  <path fill="#b78968" d="M615.56 216.14l-120.76 0 -22.25 15.2 147.17 0 2.89 10.58 0.2 0c0.36,1.54 0.72,3.1 1.08,4.68l17.84 0 0.12 -246.59 -18.37 0c-6.05,56.86 -31.43,66.81 -83.71,42.03 -85.25,-40.41 -171.74,-50.09 -256.95,-26.81 -93.22,25.46 -175.26,84.95 -225.72,167.74 -82.12,134.75 -75.18,314.07 17.66,433.72 114.22,171.17 439.91,195.12 549.13,17.66l0.5 -60.83c-45.21,72.55 -128.7,118.57 -198.56,116.98 -343.54,-7.79 -302.4,-545.05 -88.74,-627.25 56.74,-21.82 125.25,-14.52 177.74,15.97l14.22 9.55 0.21 -0.14 -75.95 50.08 0 42.16 102.88 -68.31 -1.81 1.2 11.11 11.6c-82.65,54.87 -165.3,109.75 -247.94,164.63l39.03 3.99 223.88 -152.98 7.69 11.37c9.74,15.48 17.68,32.62 24.52,53.21l2.89 10.58zm-158.79 168.35c0,-7.24 -3.01,-13.81 -7.83,-18.6 -1.53,-1.52 -3.24,-2.87 -5.1,-4 -0.91,2.84 -2.16,5.06 -3.9,6.45 -7.36,5.87 -21.31,4.81 -26.88,-1.8 -0.46,-0.54 -0.87,-1.23 -1.25,-2.04 -0.52,0.45 -1.03,0.91 -1.52,1.4 -4.76,4.72 -7.75,11.17 -7.75,18.26l-0.03 0 0.01 0.43 54.26 -0 0 -0.09 -0.03 0zm-117.44 0.1l50.03 0c-0.18,-14.14 7.47,-26.95 19.49,-34.12 -1.53,-15.95 -0.45,-38.68 -0.28,-49.9 0.11,-7.14 1.45,-13.65 3.8,-19.54l-6.83 2.99c-1.72,1.16 -3.43,1.94 -5.09,2.38 -1.74,5.26 -1.98,12.02 -2.79,22.98 -0.85,11.66 -0.53,23.83 0.23,35.85 -9.15,7.23 -15.59,17.36 -18.06,28.77l-51.6 0 0.95 18.79c0.39,7.86 1.44,22.05 3.4,39.28l0 0.04c2.92,25.65 6.98,51.43 12.82,76.58 2.99,12.87 6.49,26 10.9,38.47 -6.69,3.11 -11.03,9.83 -11.03,17.25 0,10.47 8.53,19 19,19l9.15 0c11.43,18.63 28.95,38.95 51.38,43.65 5.82,1.21 10.78,0.85 16.18,-1.42l0.01 0.03c0.74,-0.31 1.59,-0.73 2.55,-1.25 18.12,-7.34 32.72,-24.74 42.71,-41.01l9.15 0c10.47,0 19,-8.53 19,-19.01 0,-7.42 -4.33,-14.13 -11.03,-17.24 4.41,-12.46 7.91,-25.57 10.89,-38.43 5.82,-25.08 9.88,-50.8 12.8,-76.37 1.95,-17.04 3,-31.14 3.42,-39.11l0.39 -6.12c17.08,21.93 43.36,24.01 69.1,19.47 11.81,-2.08 29.72,-6.04 37.95,-15.09 11.79,-12.97 9.22,-34.57 -7.41,-41.96 -5.74,-2.55 -13.04,-3.3 -21.83,-1.15 -2.46,0.6 -4.69,1.23 -6.93,1.85 -8.39,2.35 -16.94,4.74 -20.71,1.19 -3.92,-3.68 -5.02,-18.63 -6.13,-33.75 -1.13,-15.41 -2.28,-30.98 -7.69,-41.62 -3.74,-13.78 -11.87,-22.17 -22.19,-27.18 -5.55,-0.13 -10.88,-0.32 -16.44,-0.12 51.79,23.38 25.96,92.27 45.22,110.36 9.72,9.13 24.18,2.74 37.36,-0.48 23.25,-5.68 28.56,15.2 18.95,25.76 -6.03,6.63 -22.7,10.15 -31.96,11.78 -29.66,5.23 -59.79,1.58 -70.49,-40.89 -6.95,-27.62 2.46,-77.01 -39.56,-79.19 -21.2,-1.1 -39.48,20.57 -41.01,46.85 -0.51,8.77 -0.57,17.6 -1.11,25.21 14.43,6.4 23.94,20.49 23.94,36.4l42.65 0 0 -0.03 7.88 0 -0.52 8.05c-0.68,13.14 -3.21,44.11 -8.96,78.36 -3.66,21.8 -8.65,45.06 -15.34,66.1 -2.04,6.43 -4.4,12.74 -7.08,18.93l6.82 0c4.64,0 8.43,3.79 8.43,8.43 0,4.64 -3.79,8.43 -8.43,8.43l-15.19 0c-9.03,16.06 -23.44,35.06 -41.06,41.97 -6.14,3.53 -11.53,2.65 -17.99,0.25 -17.93,-6.68 -32.6,-26.02 -41.72,-42.23l-15.19 0c-4.63,0 -8.43,-3.79 -8.43,-8.43 0,-4.64 3.79,-8.43 8.43,-8.43l6.82 0c-2.68,-6.18 -5.04,-12.5 -7.08,-18.93 -6.7,-21.08 -11.7,-44.36 -15.36,-66.2 -5.78,-34.45 -8.3,-65.6 -8.95,-78.57l-0.39 -7.72zm140.09 -10.58c-2.77,-12.58 -10.33,-23.65 -20.96,-30.92l-1.54 -1.01c0.22,-6.17 0.39,-12.35 0.75,-18.52 0.63,-10.84 4.68,-20.65 10.7,-27.53 5.32,-6.08 12.14,-9.73 19.23,-9.36 22.42,1.17 24.5,24.74 26.38,46.1 0.78,8.85 1.53,17.4 3.47,25.12 1.51,5.99 3.38,11.34 5.56,16.1l-20.98 0 0 0.03 -22.61 0zm-9.6 25.33c-0.56,52.18 -1.68,104.47 -2.59,156.66l5.13 0c0.4,-0.84 0.8,-1.68 1.19,-2.54 1.57,-3.41 3.02,-6.84 4.34,-10.25 1.37,-3.55 2.62,-7.09 3.74,-10.59 6.41,-20.15 11.24,-42.75 14.82,-64.08 4.73,-28.2 7.24,-54.02 8.31,-69.17l-0.3 0 0 -0.03 -34.64 0zm-66.89 0l4.19 156.66 46.92 0 2.52 -156.66 -53.63 0zm-9.01 156.66c-1.51,-52.16 -3.4,-104.55 -4.33,-156.66l-34.65 0c1.07,15.11 3.57,40.9 8.3,69.11 3.58,21.36 8.42,43.99 14.84,64.17 1.11,3.5 2.36,7.04 3.74,10.59 1.32,3.41 2.77,6.84 4.34,10.25 0.39,0.85 0.79,1.7 1.19,2.54l6.57 0zm-51.8 -343.99l0 42.66 100.61 -66.8 0 -42.21 -100.61 66.34zm-125.15 125.76l114.58 -76.07 0 -42.71 -123.79 81.63 9.22 37.16zm315.97 -246.4l-0.01 -0 0 0 0 0z"/>
 </g>
</svg>
